<svg xmlns="http://www.w3.org/2000/svg" xmlns:xlink="http://www.w3.org/1999/xlink" width="1080" zoomAndPan="magnify" viewBox="0 0 810 809.999993" height="1080" preserveAspectRatio="xMidYMid meet" version="1.0"><rect x="-81" width="972" fill="#ffffff" y="-80.999999" height="971.999992" fill-opacity="1"/><rect x="-81" width="972" fill="#ffffff" y="-80.999999" height="971.999992" fill-opacity="1"/><rect x="-81" width="972" fill="#000000" y="-80.999999" height="971.999992" fill-opacity="1"/><path fill="#f7d90f" d="M 333.25 575.335938 L 394.972656 435.890625 L 290.90625 405.402344 L 310.507812 368.636719 L 421.574219 160.027344 L 388.921875 342.796875 L 513.375 380.574219 L 308.269531 631.832031 Z M 333.25 575.335938 " fill-opacity="1" fill-rule="nonzero"/><path fill="#8bcb8f" d="M 687.671875 152.070312 C 694.171875 152.964844 698.761719 158.960938 697.867188 165.464844 L 691.59375 211.816406 C 690.25 221.847656 681.230469 228.964844 671.152344 228.070312 L 622.421875 223.585938 C 616.542969 223.023438 612.171875 218.09375 612.171875 212.375 C 612.171875 211.871094 612.230469 211.367188 612.285156 210.863281 C 613.125 204.699219 618.78125 200.324219 624.941406 201.167969 L 649.8125 204.585938 C 588.371094 129.648438 493.265625 83.410156 387.632812 89.015625 C 227.5625 97.480469 97.675781 227.117188 88.769531 387.300781 C 86.585938 425.746094 91.347656 462.851562 101.820312 497.433594 L 73.816406 510.546875 C 62.167969 473.835938 56.453125 434.492188 57.796875 393.632812 C 63.734375 215.234375 206.5 68.613281 384.554688 58.46875 C 499.875 51.914062 603.828125 101.683594 671.542969 182.78125 C 671.542969 182.78125 673.109375 171.460938 674.34375 162.214844 C 675.183594 156.273438 680.222656 151.957031 686.050781 151.957031 C 686.554688 151.957031 687.113281 152.011719 687.671875 152.070312 Z M 687.671875 152.070312 " fill-opacity="1" fill-rule="nonzero"/><path fill="#349370" d="M 735.953125 300.257812 C 747.601562 336.96875 753.316406 376.3125 751.972656 417.171875 C 746.035156 595.570312 603.269531 742.191406 425.214844 752.335938 C 309.894531 758.890625 205.941406 709.121094 138.226562 628.023438 C 138.226562 628.023438 136.601562 639.847656 135.371094 649.152344 C 134.53125 655.316406 128.816406 659.632812 122.65625 658.792969 L 121.480469 658.625 C 115.320312 657.78125 111.007812 652.121094 111.789062 645.957031 L 118.175781 598.988281 C 119.519531 588.957031 128.535156 581.839844 138.617188 582.734375 L 187.347656 587.21875 C 193.226562 587.78125 197.597656 592.710938 197.597656 598.429688 C 197.597656 598.933594 197.539062 599.4375 197.484375 599.941406 C 196.644531 606.105469 190.988281 610.480469 184.824219 609.636719 L 159.957031 606.21875 C 221.398438 681.15625 316.503906 727.394531 422.136719 721.789062 C 582.207031 713.324219 712.09375 583.6875 721 423.503906 C 723.183594 385.058594 718.421875 347.953125 707.949219 313.371094 Z M 735.953125 300.257812 " fill-opacity="1" fill-rule="nonzero"/></svg>